<svg xmlns="http://www.w3.org/2000/svg" version="1.1" xmlns:xlink="http://www.w3.org/1999/xlink" xmlns:svgjs="http://svgjs.dev/svgjs" width="2000" height="414" viewBox="0 0 2000 414"><g transform="matrix(1,0,0,1,-1.2121212121212466,-1.8965048205421056)"><svg viewBox="0 0 396 82" data-background-color="#1a3443" preserveAspectRatio="xMidYMid meet" height="414" width="2000" xmlns="http://www.w3.org/2000/svg" xmlns:xlink="http://www.w3.org/1999/xlink"><g id="tight-bounds" transform="matrix(1,0,0,1,0.2400000000000091,0.3756362204938455)"><svg viewBox="0 0 395.52 81.24872755901234" height="81.24872755901234" width="395.52"><g><svg viewBox="0 0 529.3662298939032 108.74376160899888" height="81.24872755901234" width="395.52"><g transform="matrix(1,0,0,1,133.84622989390328,1.2058065637795323)"><svg viewBox="0 0 395.52 106.33214848143982" height="106.33214848143982" width="395.52"><g id="textblocktransform"><svg viewBox="0 0 395.52 106.33214848143982" height="106.33214848143982" width="395.52" id="textblock"><g><svg viewBox="0 0 395.52 106.33214848143982" height="106.33214848143982" width="395.52"><g transform="matrix(1,0,0,1,0,0)"><svg width="395.52" viewBox="4 -35.01 130.22 35.01" height="106.33214848143982" data-palette-color="url(#6a8e0aaa-9ec0-4475-93de-58b57e3ad988)"><g class="wordmark-text-0" data-fill-palette-color="primary" id="text-0"></g></svg></g></svg></g></svg></g></svg></g><g><svg viewBox="0 0 108.7437616089989 108.74376160899888" height="108.74376160899888" width="108.7437616089989"><g><svg></svg></g><g id="icon-0"><svg viewBox="0 0 108.7437616089989 108.74376160899888" height="108.74376160899888" width="108.7437616089989"><g></g><g transform="matrix(1,0,0,1,33.98209927152733,21.748752321799778)"><svg viewBox="0 0 40.77956306594423 65.24625696539933" height="65.24625696539933" width="40.77956306594423"><g><svg version="1.1" xmlns="http://www.w3.org/2000/svg" xmlns:xlink="http://www.w3.org/1999/xlink" x="0" y="0" viewBox="0 0 62.501 100" enable-background="new 0 0 62.5 100" xml:space="preserve" id="dxe-0" width="40.77956306594423" height="65.24625696539933" class="icon-dxe-0" data-fill-palette-color="quaternary"><path fill="#000000" d="M60.781 14.219C59.584 13.073 57.734 12.5 55.234 12.5H43.75V7.266C43.75 4.766 43.178 2.917 42.031 1.719 40.834 0.573 38.984 0 36.484 0H26.016C23.516 0 21.667 0.573 20.469 1.719 19.323 2.917 18.75 4.766 18.75 7.266V12.5H7.266C4.766 12.5 2.917 13.073 1.719 14.219 0.573 15.417 0 17.266 0 19.766V92.735C0 95.235 0.573 97.085 1.719 98.282 2.917 99.428 4.766 100 7.266 100H55.235C57.735 100 59.585 99.428 60.782 98.281 61.928 97.084 62.501 95.234 62.501 92.734V19.766C62.5 17.266 61.928 15.417 60.781 14.219M12.5 31.25H50V87.5H12.5z" data-fill-palette-color="quaternary"></path></svg></g></svg></g></svg></g></svg></g></svg></g><defs></defs><mask id="786e6f65-d3c9-4c7d-8147-6745ebdde718"><g id="SvgjsG4369"><svg viewBox="0 0 395.52 81.24872755901234" height="81.24872755901234" width="395.52"><g><svg viewBox="0 0 529.3662298939032 108.74376160899888" height="81.24872755901234" width="395.52"><g transform="matrix(1,0,0,1,133.84622989390328,1.2058065637795323)"><svg viewBox="0 0 395.52 106.33214848143982" height="106.33214848143982" width="395.52"><g id="SvgjsG4368"><svg viewBox="0 0 395.52 106.33214848143982" height="106.33214848143982" width="395.52" id="SvgjsSvg4367"><g><svg viewBox="0 0 395.52 106.33214848143982" height="106.33214848143982" width="395.52"><g transform="matrix(1,0,0,1,0,0)"><svg width="395.52" viewBox="4 -35.01 130.22 35.01" height="106.33214848143982" data-palette-color="url(#6a8e0aaa-9ec0-4475-93de-58b57e3ad988)"><g class="wordmark-text-0" data-fill-palette-color="primary" id="SvgjsG4366"><path d="M23.71 0L4 0 4-35.01 23.71-35.01 23.71-32.01 7.15-32.01 7.15-18.99 20.56-18.99 20.56-15.99 7.15-15.99 7.15-3 23.71-3 23.71 0ZM37.55-15.31L28.2-15.31 28.2-18.14 37.55-18.14 37.55-15.31ZM63.76-32.01L47.21-32.01 47.21-18.99 60.62-18.99 60.62-15.99 47.21-15.99 47.21 0 44.06 0 44.06-35.01 63.76-35.01 63.76-32.01ZM84.81 0L68.25 0 68.25-35.01 71.4-35.01 71.4-3 84.81-3 84.81 0ZM109.51 0L89.81 0 89.81-35.01 109.51-35.01 109.51-32.01 92.96-32.01 92.96-18.99 106.36-18.99 106.36-15.99 92.96-15.99 92.96-3 109.51-3 109.51 0ZM134.22 0L130.82 0 123.62-14.55 116.42 0 113 0 121.91-17.99 113.51-35.01 116.91-35.01 123.62-21.46 130.31-35.01 133.7-35.01 125.3-17.99 134.22 0Z" fill="white"></path></g></svg></g></svg></g></svg></g></svg></g><g><svg viewBox="0 0 108.7437616089989 108.74376160899888" height="108.74376160899888" width="108.7437616089989"><g><svg></svg></g><g id="SvgjsG4365"><svg viewBox="0 0 108.7437616089989 108.74376160899888" height="108.74376160899888" width="108.7437616089989"><g><path transform="scale(1.08744,1.08744)" d="M30 100c-16.569 0-30-13.431-30-30v-40c0-16.569 13.431-30 30-30h40c16.569 0 30 13.431 30 30v40c0 16.569-13.431 30-30 30z" fill="black" fill-rule="nonzero" stroke="none" stroke-width="1" stroke-linecap="butt" stroke-linejoin="miter" stroke-miterlimit="10" stroke-dasharray="" stroke-dashoffset="0" font-family="none" font-weight="none" font-size="none" text-anchor="none" style="mix-blend-mode: normal"></path></g><g transform="matrix(1,0,0,1,33.98209927152733,21.748752321799778)"><svg viewBox="0 0 40.77956306594423 65.24625696539933" height="65.24625696539933" width="40.77956306594423"><g><svg version="1.1" xmlns="http://www.w3.org/2000/svg" xmlns:xlink="http://www.w3.org/1999/xlink" x="0" y="0" viewBox="0 0 62.501 100" enable-background="new 0 0 62.5 100" xml:space="preserve" id="SvgjsSvg4364" width="40.77956306594423" height="65.24625696539933" class="icon-dxe-0" data-fill-palette-color="quaternary"><path fill="black" d="M60.781 14.219C59.584 13.073 57.734 12.5 55.234 12.5H43.75V7.266C43.75 4.766 43.178 2.917 42.031 1.719 40.834 0.573 38.984 0 36.484 0H26.016C23.516 0 21.667 0.573 20.469 1.719 19.323 2.917 18.75 4.766 18.75 7.266V12.5H7.266C4.766 12.5 2.917 13.073 1.719 14.219 0.573 15.417 0 17.266 0 19.766V92.735C0 95.235 0.573 97.085 1.719 98.282 2.917 99.428 4.766 100 7.266 100H55.235C57.735 100 59.585 99.428 60.782 98.281 61.928 97.084 62.501 95.234 62.501 92.734V19.766C62.5 17.266 61.928 15.417 60.781 14.219M12.5 31.25H50V87.5H12.5z"></path></svg></g></svg></g></svg></g></svg></g></svg></g><defs><mask></mask></defs></svg><rect width="395.52" height="81.24872755901234" fill="black" stroke="none" visibility="hidden"></rect></g></mask><linearGradient x1="0.054" x2="0.941" y1="0.5" y2="0.5" id="6a8e0aaa-9ec0-4475-93de-58b57e3ad988"><stop stop-color="#9c7945" offset="0"></stop><stop stop-color="#faf3aa" offset="0.498"></stop><stop stop-color="#9c7945" offset="1"></stop></linearGradient><rect width="395.52" height="81.24872755901234" fill="url(#6a8e0aaa-9ec0-4475-93de-58b57e3ad988)" mask="url(#786e6f65-d3c9-4c7d-8147-6745ebdde718)" data-fill-palette-color="primary"></rect><mask id="64eb591a-1848-4c1f-89ff-91d6ab0d1f55"><g id="SvgjsG4394"><svg viewBox="0 0 395.52 81.24872755901234" height="81.24872755901234" width="395.52"><g><svg viewBox="0 0 529.3662298939032 108.74376160899888" height="81.24872755901234" width="395.52"><g transform="matrix(1,0,0,1,133.84622989390328,1.2058065637795323)"><svg viewBox="0 0 395.52 106.33214848143982" height="106.33214848143982" width="395.52"><g id="SvgjsG4393"><svg viewBox="0 0 395.52 106.33214848143982" height="106.33214848143982" width="395.52" id="SvgjsSvg4392"><g><svg viewBox="0 0 395.52 106.33214848143982" height="106.33214848143982" width="395.52"><g transform="matrix(1,0,0,1,0,0)"><svg width="395.52" viewBox="4 -35.01 130.22 35.01" height="106.33214848143982" data-palette-color="url(#6a8e0aaa-9ec0-4475-93de-58b57e3ad988)"><g class="wordmark-text-0" data-fill-palette-color="primary" id="SvgjsG4391"></g></svg></g></svg></g></svg></g></svg></g><g><svg viewBox="0 0 108.7437616089989 108.74376160899888" height="108.74376160899888" width="108.7437616089989"><g><svg></svg></g><g id="SvgjsG4390"><svg viewBox="0 0 108.7437616089989 108.74376160899888" height="108.74376160899888" width="108.7437616089989"><g><path transform="scale(1.08744,1.08744)" d="M30 100c-16.569 0-30-13.431-30-30v-40c0-16.569 13.431-30 30-30h40c16.569 0 30 13.431 30 30v40c0 16.569-13.431 30-30 30z" fill="white" fill-rule="nonzero" stroke="none" stroke-width="1" stroke-linecap="butt" stroke-linejoin="miter" stroke-miterlimit="10" stroke-dasharray="" stroke-dashoffset="0" font-family="none" font-weight="none" font-size="none" text-anchor="none" style="mix-blend-mode: normal"></path></g><g transform="matrix(1,0,0,1,33.98209927152733,21.748752321799778)"><svg viewBox="0 0 40.77956306594423 65.24625696539933" height="65.24625696539933" width="40.77956306594423"><g><svg version="1.1" xmlns="http://www.w3.org/2000/svg" xmlns:xlink="http://www.w3.org/1999/xlink" x="0" y="0" viewBox="0 0 62.501 100" enable-background="new 0 0 62.5 100" xml:space="preserve" id="SvgjsSvg4389" width="40.77956306594423" height="65.24625696539933" class="icon-dxe-0" data-fill-palette-color="quaternary"><path fill="black" d="M60.781 14.219C59.584 13.073 57.734 12.5 55.234 12.5H43.75V7.266C43.75 4.766 43.178 2.917 42.031 1.719 40.834 0.573 38.984 0 36.484 0H26.016C23.516 0 21.667 0.573 20.469 1.719 19.323 2.917 18.75 4.766 18.75 7.266V12.5H7.266C4.766 12.5 2.917 13.073 1.719 14.219 0.573 15.417 0 17.266 0 19.766V92.735C0 95.235 0.573 97.085 1.719 98.282 2.917 99.428 4.766 100 7.266 100H55.235C57.735 100 59.585 99.428 60.782 98.281 61.928 97.084 62.501 95.234 62.501 92.734V19.766C62.5 17.266 61.928 15.417 60.781 14.219M12.5 31.25H50V87.5H12.5z"></path></svg></g></svg></g></svg></g></svg></g></svg></g><defs><mask></mask></defs><mask><g id="SvgjsG4388"><svg viewBox="0 0 395.52 81.24872755901234" height="81.24872755901234" width="395.52"><g><svg viewBox="0 0 529.3662298939032 108.74376160899888" height="81.24872755901234" width="395.52"><g transform="matrix(1,0,0,1,133.84622989390328,1.2058065637795323)"><svg viewBox="0 0 395.52 106.33214848143982" height="106.33214848143982" width="395.52"><g id="SvgjsG4387"><svg viewBox="0 0 395.52 106.33214848143982" height="106.33214848143982" width="395.52" id="SvgjsSvg4386"><g><svg viewBox="0 0 395.52 106.33214848143982" height="106.33214848143982" width="395.52"><g transform="matrix(1,0,0,1,0,0)"><svg width="395.52" viewBox="4 -35.01 130.22 35.01" height="106.33214848143982" data-palette-color="url(#6a8e0aaa-9ec0-4475-93de-58b57e3ad988)"><g class="wordmark-text-0" data-fill-palette-color="primary" id="SvgjsG4385"><path d="M23.71 0L4 0 4-35.01 23.71-35.01 23.71-32.01 7.15-32.01 7.15-18.99 20.56-18.99 20.56-15.99 7.15-15.99 7.15-3 23.71-3 23.71 0ZM37.55-15.31L28.2-15.31 28.2-18.14 37.55-18.14 37.55-15.31ZM63.76-32.01L47.21-32.01 47.21-18.99 60.62-18.99 60.62-15.99 47.21-15.99 47.21 0 44.06 0 44.06-35.01 63.76-35.01 63.76-32.01ZM84.81 0L68.25 0 68.25-35.01 71.4-35.01 71.4-3 84.81-3 84.81 0ZM109.51 0L89.81 0 89.81-35.01 109.51-35.01 109.51-32.01 92.96-32.01 92.96-18.99 106.36-18.99 106.36-15.99 92.96-15.99 92.96-3 109.51-3 109.51 0ZM134.22 0L130.82 0 123.62-14.55 116.42 0 113 0 121.91-17.99 113.51-35.01 116.91-35.01 123.62-21.46 130.31-35.01 133.7-35.01 125.3-17.99 134.22 0Z" fill="black"></path></g></svg></g></svg></g></svg></g></svg></g><g><svg viewBox="0 0 108.7437616089989 108.74376160899888" height="108.74376160899888" width="108.7437616089989"><g><svg></svg></g><g id="SvgjsG4384"><svg viewBox="0 0 108.7437616089989 108.74376160899888" height="108.74376160899888" width="108.7437616089989"><g><path transform="scale(1.08744,1.08744)" d="M30 100c-16.569 0-30-13.431-30-30v-40c0-16.569 13.431-30 30-30h40c16.569 0 30 13.431 30 30v40c0 16.569-13.431 30-30 30z" fill="black" fill-rule="nonzero" stroke="none" stroke-width="1" stroke-linecap="butt" stroke-linejoin="miter" stroke-miterlimit="10" stroke-dasharray="" stroke-dashoffset="0" font-family="none" font-weight="none" font-size="none" text-anchor="none" style="mix-blend-mode: normal"></path></g><g transform="matrix(1,0,0,1,33.98209927152733,21.748752321799778)"><svg viewBox="0 0 40.77956306594423 65.24625696539933" height="65.24625696539933" width="40.77956306594423"><g><svg version="1.1" xmlns="http://www.w3.org/2000/svg" xmlns:xlink="http://www.w3.org/1999/xlink" x="0" y="0" viewBox="0 0 62.501 100" enable-background="new 0 0 62.5 100" xml:space="preserve" id="SvgjsSvg4383" width="40.77956306594423" height="65.24625696539933" class="icon-dxe-0" data-fill-palette-color="quaternary"><path fill="black" d="M60.781 14.219C59.584 13.073 57.734 12.5 55.234 12.5H43.75V7.266C43.75 4.766 43.178 2.917 42.031 1.719 40.834 0.573 38.984 0 36.484 0H26.016C23.516 0 21.667 0.573 20.469 1.719 19.323 2.917 18.75 4.766 18.75 7.266V12.5H7.266C4.766 12.5 2.917 13.073 1.719 14.219 0.573 15.417 0 17.266 0 19.766V92.735C0 95.235 0.573 97.085 1.719 98.282 2.917 99.428 4.766 100 7.266 100H55.235C57.735 100 59.585 99.428 60.782 98.281 61.928 97.084 62.501 95.234 62.501 92.734V19.766C62.5 17.266 61.928 15.417 60.781 14.219M12.5 31.25H50V87.5H12.5z"></path></svg></g></svg></g></svg></g></svg></g></svg></g><defs><mask></mask></defs></svg><rect width="395.52" height="81.24872755901234" fill="black" stroke="none" visibility="hidden"></rect></g></mask></svg><rect width="395.52" height="81.24872755901234" fill="black" stroke="none" visibility="hidden"></rect></g></mask><linearGradient x1="0.054" x2="0.941" y1="0.5" y2="0.5" id="30f86743-b092-4ddf-8780-9c6810611f5d"><stop stop-color="#9c7945" offset="0"></stop><stop stop-color="#faf3aa" offset="0.498"></stop><stop stop-color="#9c7945" offset="1"></stop></linearGradient><rect width="395.52" height="81.24872755901234" fill="url(#30f86743-b092-4ddf-8780-9c6810611f5d)" mask="url(#64eb591a-1848-4c1f-89ff-91d6ab0d1f55)" data-fill-palette-color="accent"></rect></svg><rect width="395.52" height="81.24872755901234" fill="none" stroke="none" visibility="hidden"></rect></g></svg></g></svg>